<?xml version="1.0" standalone="no"?>
<!DOCTYPE svg PUBLIC "-//W3C//DTD SVG 1.1//EN" "http://www.w3.org/Graphics/SVG/1.1/DTD/svg11.dtd" >
<svg xmlns="http://www.w3.org/2000/svg" xmlns:xlink="http://www.w3.org/1999/xlink" version="1.1">
<metadata></metadata>
<defs>
<font id="ropa_sansregular" horiz-adv-x="1064" >
<font-face units-per-em="2048" ascent="1638" descent="-410" />
<missing-glyph horiz-adv-x="614" />
<glyph horiz-adv-x="0" />
<glyph horiz-adv-x="0" />
<glyph horiz-adv-x="682" />
<glyph horiz-adv-x="0" />
<glyph horiz-adv-x="0" />
<glyph horiz-adv-x="0" />
<glyph horiz-adv-x="0" />
<glyph horiz-adv-x="0" />
<glyph horiz-adv-x="0" />
<glyph horiz-adv-x="0" />
<glyph horiz-adv-x="0" />
<glyph unicode="&#x9;" horiz-adv-x="0" />
<glyph unicode="&#xd;" horiz-adv-x="614" />
<glyph horiz-adv-x="0" />
<glyph horiz-adv-x="0" />
<glyph horiz-adv-x="0" />
<glyph horiz-adv-x="0" />
<glyph horiz-adv-x="0" />
<glyph horiz-adv-x="0" />
<glyph horiz-adv-x="0" />
<glyph horiz-adv-x="0" />
<glyph horiz-adv-x="0" />
<glyph horiz-adv-x="0" />
<glyph unicode=" "  horiz-adv-x="614" />
<glyph unicode="&#x09;" horiz-adv-x="614" />
<glyph unicode="&#xa0;" horiz-adv-x="614" />
<glyph unicode="!" horiz-adv-x="432" d="M102 68v59q0 46 29.5 70t83.5 24q56 0 85.5 -24t29.5 -70v-59q0 -44 -30 -68.5t-85 -24.5q-54 0 -83.5 24.5t-29.5 68.5zM119 1423h194l-14 -1013h-166z" />
<glyph unicode="&#x22;" horiz-adv-x="768" d="M154 879v520h174v-520h-174zM440 879v520h174v-520h-174z" />
<glyph unicode="#" d="M35 256v143h164v457h-164v143h164v256h174v-256h319v256h174v-256h164v-143h-164v-457h164v-143h-164v-256h-174v256h-319v-256h-174v256h-164zM373 399h319v457h-319v-457z" />
<glyph unicode="$" d="M152 903v10q0 153 73.5 235.5t237.5 100.5v174h153v-170q53 -3 224 -26l-4 -150q-157 29 -269 29q-131 0 -186 -43t-55 -133v-41q0 -77 28 -110.5t127 -63.5l129 -39q175 -53 238 -125.5t63 -222.5v-11q0 -143 -68.5 -226t-226.5 -105v-179h-153v168q-82 2 -260 35l4 150 q152 -35 268 -35q143 0 202.5 43t59.5 133v41q0 68 -34 101.5t-144 66.5l-127 39q-165 50 -222.5 121.5t-57.5 232.5z" />
<glyph unicode="%" horiz-adv-x="1888" d="M133 866v62q0 158 82 242.5t242 84.5q159 0 240 -84t81 -243v-62q0 -159 -81 -243t-240 -84q-160 0 -242 84.5t-82 242.5zM307 866q0 -91 37 -132.5t113 -41.5q75 0 111 41.5t36 132.5v62q0 92 -36 133t-111 41t-112.5 -41.5t-37.5 -132.5v-62zM520 0l686 1255h178 l-686 -1255h-178zM1110 303v62q0 158 82 242.5t242 84.5q159 0 240 -84t81 -243v-62q0 -159 -81 -243.5t-240 -84.5q-160 0 -242 85t-82 243zM1284 303q0 -91 37 -132.5t113 -41.5q75 0 111 41.5t36 132.5v62q0 92 -36 133t-111 41t-112.5 -41.5t-37.5 -132.5v-62z" />
<glyph unicode="&#x26;" horiz-adv-x="1085" d="M72 332v45q0 115 62.5 199.5t176.5 119.5q-188 82 -188 297v45q0 143 100 235.5t279 92.5q90 0 241 -23l-4 -145q-134 23 -237 23q-209 0 -209 -197v-45q0 -106 66 -166.5t190 -60.5h207v149h168v-149h151v-142h-151v-583q-148 -31 -218 -41.5t-157 -10.5 q-132 0 -226 25.5t-148 74t-78.5 111.5t-24.5 146zM246 330q0 -99 75 -153t228 -54q84 0 207 27v460h-219q-145 0 -218 -59.5t-73 -165.5v-55z" />
<glyph unicode="'" horiz-adv-x="481" d="M154 879v520h174v-520h-174z" />
<glyph unicode="(" d="M334 133v1102q0 118 13 186.5t53 114t106 61t178 15.5v-148q-111 -8 -143.5 -36t-32.5 -117v-1223q0 -60 4.5 -90t23.5 -52.5t52.5 -30.5t95.5 -11v-148q-112 0 -178 15.5t-106 61t-53 114t-13 186.5z" />
<glyph unicode=")" d="M379 -96q62 3 95.5 11t52.5 30.5t23.5 52.5t4.5 90v1223q0 89 -32.5 117t-143.5 36v148q112 0 178 -15.5t106 -61t53 -114t13 -186.5v-1102q0 -118 -13 -186.5t-53 -114t-106 -61t-178 -15.5v148z" />
<glyph unicode="*" horiz-adv-x="839" d="M113 1149l47 135l209 -88l-21 227h141l-20 -229l211 90l47 -135l-227 -51l151 -172l-116 -84l-117 196l-117 -198l-115 86l152 174z" />
<glyph unicode="+" d="M168 543v145h287v311h155v-311h287v-145h-287v-312h-155v312h-287z" />
<glyph unicode="," horiz-adv-x="450" d="M113 -330l73 312q-71 15 -71 88v59q0 44 28 68t82 24q55 0 84 -24t29 -68v-63q0 -59 -14 -105l-88 -291h-123z" />
<glyph unicode="-" horiz-adv-x="716" d="M133 539v133h451v-133h-451z" />
<glyph unicode="." horiz-adv-x="452" d="M113 68v59q0 46 29 70t83 24q56 0 85.5 -24t29.5 -70v-59q0 -44 -30 -68.5t-85 -24.5q-54 0 -83 24.5t-29 68.5z" />
<glyph unicode="/" d="M236 0l419 1399h174l-419 -1399h-174z" />
<glyph unicode="0" d="M154 395v441q0 210 97 314.5t281 104.5t281.5 -105t97.5 -314v-441q0 -210 -97.5 -315t-281.5 -105t-281 105t-97 315zM328 379q0 -256 204 -256q205 0 205 256v473q0 256 -205 256q-204 0 -204 -256v-473z" />
<glyph unicode="1" d="M174 1096l332 135h153v-1081h230v-150h-666v150h262v913h-4l-272 -117z" />
<glyph unicode="2" d="M195 0v133l409 518q57 72 74.5 118t17.5 120v37q0 98 -50 140t-163 42q-123 0 -258 -43v149q148 41 258 41q198 0 292.5 -79.5t94.5 -239.5v-45q0 -96 -33 -177.5t-137 -205.5l-297 -358h461v-150h-669z" />
<glyph unicode="3" d="M211 2v145q156 -26 264 -26q97 0 151 54t54 149v32q0 209 -215 209h-182v140h182q97 0 142.5 48.5t45.5 153.5v39q0 166 -184 166q-84 0 -258 -29v146q167 26 258 26q173 0 265.5 -83.5t92.5 -235.5v-21q0 -196 -157 -272q85 -35 134.5 -113t49.5 -176v-20 q0 -162 -98 -260.5t-281 -98.5q-90 0 -264 27z" />
<glyph unicode="4" d="M104 356l281 875h158l-258 -823h356v413h168v-413h152v-144h-152v-264h-170v264h-489z" />
<glyph unicode="5" d="M168 504v733h631v-150h-457v-395q116 90 272 90q141 0 212 -82.5t71 -265.5v-74q0 -385 -399 -385q-153 0 -310 45v142q60 -13 158 -26t148 -13q113 0 171 60.5t58 176.5v80q0 197 -152 197q-81 0 -144 -31t-126 -102h-133z" />
<glyph unicode="6" d="M154 365v376q0 242 163 369t486 131v-149q-252 -4 -363.5 -83t-111.5 -235v-115q146 138 274 138q146 0 227.5 -91.5t81.5 -271.5v-80q0 -186 -97.5 -282.5t-283.5 -96.5q-183 0 -279.5 101.5t-96.5 288.5zM328 354q0 -231 202 -231q207 0 207 221v96q0 101 -44 153 t-122 52q-99 0 -243 -133v-158z" />
<glyph unicode="7" d="M162 1079v150h739v-119l-459 -1110h-186l459 1075v4h-553z" />
<glyph unicode="8" d="M133 334v31q0 212 182 292q-129 77 -129 265v10q0 153 93 238t253 85q161 0 254 -84.5t93 -238.5v-10q0 -188 -129 -265q182 -82 182 -292v-31q0 -169 -103.5 -264t-296.5 -95q-192 0 -295.5 94.5t-103.5 264.5zM307 317q0 -90 58.5 -143t166.5 -53t167 53t59 143v52 q0 105 -60.5 162t-165.5 57q-106 0 -165.5 -57.5t-59.5 -161.5v-52zM356 903q0 -96 40.5 -138t135.5 -42q96 0 136.5 42t40.5 138v39q0 91 -44 134.5t-133 43.5q-176 0 -176 -178v-39z" />
<glyph unicode="9" d="M154 795v79q0 184 96.5 281.5t284.5 97.5q184 0 280 -99t96 -290v-438q0 -233 -103.5 -342t-313.5 -109q-116 0 -265 33v146q181 -33 265 -33q125 0 184 68.5t59 224.5v155q-143 -137 -278 -137q-145 0 -225 92t-80 271zM328 788q0 -100 43.5 -152t122.5 -52 q99 0 243 133v157q0 232 -202 232q-207 0 -207 -221v-97z" />
<glyph unicode=":" horiz-adv-x="452" d="M113 68v59q0 46 29 70t83 24q56 0 85.5 -24t29.5 -70v-59q0 -44 -30 -68.5t-85 -24.5q-54 0 -83 24.5t-29 68.5zM113 871v59q0 46 29 70t83 24q56 0 85.5 -24t29.5 -70v-59q0 -44 -30 -68.5t-85 -24.5q-54 0 -83 24.5t-29 68.5z" />
<glyph unicode=";" horiz-adv-x="452" d="M113 -330l73 312q-71 15 -71 88v59q0 44 28 68t82 24q55 0 84 -24t29 -68v-63q0 -59 -14 -105l-88 -291h-123zM113 870v60q0 46 29 70t83 24q56 0 85.5 -24t29.5 -70v-60q0 -44 -30 -68t-85 -24q-54 0 -83 24t-29 68z" />
<glyph unicode="&#x3c;" d="M164 530v154l737 328v-170l-565 -234l565 -235v-170z" />
<glyph unicode="=" d="M170 369v143h725v-143h-725zM170 719v143h725v-143h-725z" />
<glyph unicode="&#x3e;" d="M164 203v170l565 235l-565 234v170l737 -328v-154z" />
<glyph unicode="?" horiz-adv-x="808" d="M51 1247v144q160 32 268 32q199 0 288 -71.5t89 -210.5v-51q0 -93 -41 -175.5t-137 -183.5l-67 -74q-34 -35 -45 -64.5t-11 -90.5v-92h-166v65q0 100 14 143.5t68 106.5l119 139q56 66 74 112t18 118v45q0 77 -46.5 111t-166.5 34q-91 0 -258 -37zM203 68v59q0 46 29 70 t83 24q56 0 85.5 -24t29.5 -70v-59q0 -44 -30 -68.5t-85 -24.5q-54 0 -83 24.5t-29 68.5z" />
<glyph unicode="@" horiz-adv-x="1966" d="M154 385v205q0 186 48.5 337t145.5 262.5t253.5 172.5t361.5 61q431 0 640 -193.5t209 -578.5v-102q0 -230 -117.5 -374t-318.5 -144q-114 0 -180 50t-78 142q-73 -89 -156.5 -140.5t-158.5 -51.5q-114 0 -174 68t-60 194q0 32 6 80l37 282q22 166 109 255t225 89 q111 0 240 -110l10 84h164l-82 -649q-4 -24 -4 -41q0 -99 104 -99q109 0 184.5 103.5t75.5 261.5v102q0 304 -169.5 460.5t-505.5 156.5q-301 0 -468 -176.5t-167 -501.5v-205q0 -299 160 -453.5t475 -154.5h276v-156h-276q-809 0 -809 764zM745 330q0 -144 111 -144 q61 0 128 48.5t126 138.5l45 370q-37 44 -91 72.5t-101 28.5q-72 0 -120 -52.5t-61 -160.5l-30 -236q-7 -44 -7 -65z" />
<glyph unicode="A" horiz-adv-x="1097" d="M31 0l409 1341h215l412 -1341h-188l-88 311h-494l-88 -311h-178zM340 467h405l-200 715z" />
<glyph unicode="B" horiz-adv-x="1081" d="M154 -12v1370q188 8 360 8q215 0 327.5 -88.5t112.5 -239.5v-45q0 -215 -188 -297q115 -25 179.5 -105.5t64.5 -199.5v-45q0 -169 -120.5 -270t-361.5 -101q-115 0 -374 13zM328 139q133 -12 200 -12q157 0 232.5 61t75.5 168v43q0 211 -295 211h-213v-471zM328 752h200 q123 0 187.5 59t64.5 166v35q0 101 -69.5 153t-223.5 52q-59 0 -159 -7v-458z" />
<glyph unicode="C" horiz-adv-x="974" d="M143 389v563q0 214 101 314t336 100q26 0 54 -2t61.5 -6t53 -7t60.5 -9.5t53 -8.5l-4 -153q-181 32 -278 32q-140 0 -201.5 -57t-61.5 -190v-586q0 -132 61 -189t202 -57q91 0 278 33l4 -158q-12 -2 -53 -8.5t-60.5 -9.5t-53 -7t-61.5 -6t-54 -2q-237 0 -337 101 t-100 313z" />
<glyph unicode="D" horiz-adv-x="1169" d="M154 -12v1370q184 8 374 8q244 0 376 -138.5t132 -398.5v-335q0 -251 -131.5 -385t-386.5 -134q-158 0 -364 13zM328 137q120 -12 190 -12q158 0 251 91.5t93 262.5v363q0 186 -90.5 281.5t-253.5 95.5q-32 0 -190 -5v-1077z" />
<glyph unicode="E" horiz-adv-x="993" d="M154 0v1341h706v-157h-532v-424h491v-156h-491v-446h532v-158h-706z" />
<glyph unicode="F" horiz-adv-x="993" d="M154 0v1341h706v-157h-532v-424h401v-156h-401v-604h-174z" />
<glyph unicode="G" horiz-adv-x="1146" d="M143 389v563q0 217 103 315.5t334 98.5q129 0 354 -45l-4 -150q-243 46 -350 46q-142 0 -202.5 -57.5t-60.5 -188.5v-594q0 -132 61 -190t202 -58q87 0 239 29v452h-256v164h430v-723q-245 -76 -413 -76q-237 0 -337 101t-100 313z" />
<glyph unicode="H" horiz-adv-x="1187" d="M154 0v1341h174v-571h532v571h174v-1341h-174v614h-532v-614h-174z" />
<glyph unicode="I" horiz-adv-x="481" d="M154 0v1341h174v-1341h-174z" />
<glyph unicode="J" horiz-adv-x="638" d="M41 -10v145q57 -10 139 -10q131 0 131 129v1087h174v-1056q0 -158 -75 -234t-238 -76q-32 0 -74.5 5t-56.5 10z" />
<glyph unicode="K" horiz-adv-x="1126" d="M154 0v1341h174v-647l499 647h195l-514 -649l567 -692h-223l-524 664v-664h-174z" />
<glyph unicode="L" horiz-adv-x="911" d="M154 0v1341h174v-1187h532v-154h-706z" />
<glyph unicode="M" horiz-adv-x="1431" d="M143 0l13 1341h258l303 -1046l301 1046h258l12 -1341h-170l-10 1102l-285 -963h-215l-284 963l-11 -1102h-170z" />
<glyph unicode="N" horiz-adv-x="1191" d="M154 0v1341h278l434 -1132v1132h172v-1341h-270l-442 1133v-1133h-172z" />
<glyph unicode="O" horiz-adv-x="1179" d="M143 416v510q0 211 108.5 325.5t338.5 114.5q446 0 446 -440v-510q0 -211 -108 -326t-338 -115t-338.5 115t-108.5 326zM317 397q0 -131 69.5 -199.5t203.5 -68.5t203 68.5t69 199.5v547q0 130 -68.5 199t-203.5 69t-204 -68t-69 -198v-549z" />
<glyph unicode="P" horiz-adv-x="1032" d="M154 0v1356q173 10 354 10q239 0 356 -97t117 -276v-49q0 -190 -114.5 -294.5t-342.5 -104.5q-92 0 -196 16v-561h-174zM328 711q130 -17 188 -17q291 0 291 258v35q0 116 -73 175t-230 59q-90 0 -176 -4v-506z" />
<glyph unicode="Q" horiz-adv-x="1179" d="M143 416v510q0 211 108.5 325.5t338.5 114.5q446 0 446 -440v-506q0 -141 -43.5 -231.5t-134.5 -141.5l219 -59l4 -162h-39l-401 151q-16 -2 -49 -2q-231 0 -340 115t-109 326zM317 397q0 -131 69.5 -199.5t203.5 -68.5q272 0 272 279v536q0 130 -68.5 199t-203.5 69 t-204 -68t-69 -198v-549z" />
<glyph unicode="R" horiz-adv-x="1122" d="M154 0v1358q230 8 354 8q242 0 355.5 -93t113.5 -263v-54q0 -113 -67.5 -210.5t-180.5 -139.5l342 -606h-194l-324 573h-39q-94 0 -186 5v-578h-174zM328 733q123 -8 182 -8q293 0 293 236v38q0 113 -70.5 167.5t-228.5 54.5q-66 0 -176 -4v-484z" />
<glyph unicode="S" horiz-adv-x="933" d="M92 983v23q0 178 96.5 269t303.5 91q103 0 286 -33l-4 -153q-167 32 -282 32q-120 0 -173 -47t-53 -143v-53q0 -74 32 -109t134 -67l191 -64q137 -46 193 -124t56 -228v-39q0 -181 -105 -272t-345 -91q-118 0 -299 41l4 158q169 -41 291 -41q153 0 216.5 46.5t63.5 144.5 v67q0 71 -31 109.5t-112 64.5l-211 70q-142 46 -197 121.5t-55 226.5z" />
<glyph unicode="T" horiz-adv-x="1054" d="M51 1184v157h953v-157h-390v-1184h-174v1184h-389z" />
<glyph unicode="U" horiz-adv-x="1179" d="M154 420v921h174v-944q0 -132 68 -200t194 -68t194 68t68 200v944h174v-917q0 -218 -110 -333.5t-326 -115.5q-213 0 -324.5 112.5t-111.5 332.5z" />
<glyph unicode="V" horiz-adv-x="1085" d="M31 1341h184l328 -1173l327 1173h185l-398 -1341h-229z" />
<glyph unicode="W" horiz-adv-x="1736" d="M51 1341h185l245 -1151l269 1151h237l270 -1151l244 1151h185l-306 -1341h-233l-279 1143l-276 -1143h-234z" />
<glyph unicode="X" horiz-adv-x="1071" d="M31 0l393 692l-369 649h209l281 -512l280 512h193l-365 -653l387 -688h-211l-299 549l-299 -549h-200z" />
<glyph unicode="Y" horiz-adv-x="1013" d="M31 1341h198l279 -696l280 696h195l-389 -880v-461h-174v461z" />
<glyph unicode="Z" horiz-adv-x="1013" d="M92 0v137l606 1047h-594v157h797v-137l-606 -1046h606v-158h-809z" />
<glyph unicode="[" d="M322 -238v1844h419v-144h-245v-1556h245v-144h-419z" />
<glyph unicode="\" d="M236 1399h174l419 -1399h-174z" />
<glyph unicode="]" d="M322 -94h245v1556h-245v144h419v-1844h-419v144z" />
<glyph unicode="^" horiz-adv-x="1013" d="M133 825l297 574h154l297 -574h-170l-205 412l-203 -412h-170z" />
<glyph unicode="_" horiz-adv-x="1249" d="M133 -246h983v-133h-983v133z" />
<glyph unicode="`" horiz-adv-x="788" d="M219 1403h174l156 -285h-135z" />
<glyph unicode="a" horiz-adv-x="960" d="M113 281v57q0 126 83.5 207.5t225.5 81.5q74 0 211 -27v109q0 89 -39.5 127t-124.5 38q-96 0 -276 -30v149q199 31 276 31q175 0 256.5 -79.5t81.5 -250.5v-694h-166v160q-120 -185 -268 -185q-118 0 -189 82.5t-71 223.5zM289 293q0 -76 34.5 -119t88.5 -43 q55 0 113.5 48t107.5 136v158q-77 14 -168 14q-85 0 -130.5 -45.5t-45.5 -126.5v-22z" />
<glyph unicode="b" horiz-adv-x="1005" d="M154 348v1051h174v-533q114 158 268 158q127 0 196.5 -89t69.5 -259v-324q0 -188 -87.5 -282.5t-272.5 -94.5q-181 0 -264.5 92t-83.5 281zM328 328q0 -100 46.5 -153.5t127.5 -53.5q186 0 186 211v319q0 217 -133 217q-60 0 -121.5 -45t-105.5 -123v-372z" />
<glyph unicode="c" horiz-adv-x="827" d="M143 348v303q0 373 371 373q72 0 201 -20l-4 -154q-120 20 -197 20q-96 0 -146.5 -52.5t-50.5 -151.5v-330q0 -102 51.5 -154.5t145.5 -52.5q71 0 197 21l4 -154q-135 -21 -201 -21q-371 0 -371 373z" />
<glyph unicode="d" horiz-adv-x="1005" d="M143 317v365q0 162 74.5 252t214.5 90q114 0 246 -102v477h174v-1399h-166v162q-124 -187 -280 -187q-127 0 -195 87t-68 255zM317 340q0 -209 129 -209q61 0 122 48t110 136v451q-43 44 -101.5 73t-105.5 29q-73 0 -113.5 -52t-40.5 -159v-317z" />
<glyph unicode="e" horiz-adv-x="956" d="M143 336v321q0 179 87 273t262 94q172 0 262 -94t90 -273v-211h-527v-120q0 -104 49.5 -150.5t157.5 -46.5q99 0 289 37l-8 -154q-208 -37 -281 -37q-203 0 -292 88t-89 273zM317 586h353v92q0 99 -48 150t-130 51q-80 0 -127.5 -51t-47.5 -144v-98z" />
<glyph unicode="f" horiz-adv-x="681" d="M72 856v143h143v105q1 160 79.5 239.5t227.5 79.5q66 0 129 -14v-139q-62 10 -127 10q-62 0 -98.5 -39t-36.5 -111v-131h184v-143h-184v-856h-174v856h-143z" />
<glyph unicode="g" horiz-adv-x="995" d="M82 207v41q0 94 92 164q-65 73 -65 247v46q0 146 89.5 232.5t262.5 86.5q88 0 164 -27l319 4v-153l-174 6q41 -61 41 -156v-45q0 -149 -92 -240t-258 -91q-107 0 -174 20q-45 -39 -45 -82v-12q0 -32 21.5 -49t78.5 -21l305 -22q94 -8 152.5 -70.5t58.5 -157.5v-75 q0 -52 -10.5 -90t-38 -70.5t-74 -53t-120 -31.5t-175.5 -11q-146 0 -299 36l-6 158q64 -22 150 -35.5t155 -13.5q108 0 161 13.5t70 40t17 81.5v19q0 46 -25.5 72.5t-72.5 29.5l-307 20q-97 6 -149 56t-52 133zM283 641q0 -108 32 -141t134 -33q94 0 141 45t47 129v61 q0 84 -25 150q-60 27 -151 27q-85 0 -131.5 -43.5t-46.5 -126.5v-68z" />
<glyph unicode="h" horiz-adv-x="1005" d="M154 0v1399h174v-533q114 158 262 158q131 0 201.5 -89t70.5 -253v-682h-174v657q0 205 -133 205q-60 0 -121.5 -45t-105.5 -123v-694h-174z" />
<glyph unicode="i" horiz-adv-x="501" d="M137 1270v59q0 46 29.5 70t83.5 24q56 0 85.5 -24t29.5 -70v-59q0 -44 -30 -68t-85 -24q-54 0 -83.5 24t-29.5 68zM164 0v999h174v-999h-174z" />
<glyph unicode="j" horiz-adv-x="481" d="M-109 -246q92 -8 132 -8q68 0 99.5 35t31.5 110v1108h174v-1097q0 -154 -76.5 -229.5t-237.5 -75.5q-69 0 -123 12v145zM127 1270v59q0 46 29.5 70t83.5 24q114 0 114 -94v-59q0 -44 -29.5 -68t-84.5 -24q-54 0 -83.5 24t-29.5 68z" />
<glyph unicode="k" horiz-adv-x="925" d="M154 0v1399h174v-838l327 438h195l-340 -438l364 -561h-208l-338 537v-537h-174z" />
<glyph unicode="l" horiz-adv-x="481" d="M154 0v1399h174v-1399h-174z" />
<glyph unicode="m" horiz-adv-x="1519" d="M154 0v999h163v-149q54 84 123.5 129t145.5 45q188 0 245 -188q115 188 279 188q128 0 197 -89t69 -253v-682h-174v657q0 205 -127 205q-58 0 -118.5 -45.5t-104.5 -122.5v-694h-174v657q0 205 -127 205q-58 0 -118.5 -45.5t-104.5 -122.5v-694h-174z" />
<glyph unicode="n" horiz-adv-x="1005" d="M154 0v999h163v-149q113 174 273 174q131 0 201.5 -89t70.5 -253v-682h-174v657q0 205 -133 205q-60 0 -121.5 -45t-105.5 -123v-694h-174z" />
<glyph unicode="o" horiz-adv-x="1007" d="M143 348v303q0 178 89 275.5t272 97.5t271.5 -97t88.5 -276v-303q0 -179 -88.5 -276t-271.5 -97t-272 97.5t-89 275.5zM317 334q0 -103 49 -158t138 -55t137.5 55t48.5 158v334q0 103 -48.5 157t-137.5 54t-138 -55t-49 -158v-332z" />
<glyph unicode="p" horiz-adv-x="1003" d="M154 -379v1378h163v-145q112 170 271 170q129 0 200.5 -87.5t71.5 -254.5v-365q0 -160 -83 -251t-224 -91q-104 0 -225 72v-426h-174zM328 203q43 -35 94.5 -54.5t95.5 -19.5q168 0 168 213v315q0 211 -133 211q-60 0 -120.5 -43.5t-104.5 -119.5v-502z" />
<glyph unicode="q" horiz-adv-x="1005" d="M143 317v365q0 162 74.5 252t214.5 90q113 0 254 -109v84h166v-1378h-174v529q-121 -175 -272 -175q-127 0 -195 87t-68 255zM317 340q0 -209 129 -209q61 0 122 48t110 136v451q-43 44 -101.5 73t-105.5 29q-73 0 -113.5 -52t-40.5 -159v-317z" />
<glyph unicode="r" horiz-adv-x="706" d="M154 0v999h163v-149q113 174 273 174q29 0 45 -4v-197q-30 6 -80 6q-143 0 -227 -143v-686h-174z" />
<glyph unicode="s" horiz-adv-x="796" d="M92 713v26q0 145 80.5 215t265.5 70q90 0 215 -25l-4 -147q-113 25 -203 25q-104 0 -143 -28.5t-39 -92.5v-17q0 -39 20.5 -62.5t73.5 -45.5l193 -80q88 -36 136 -100t48 -140v-49q0 -145 -83.5 -216t-272.5 -71q-119 0 -260 33l4 154q129 -33 256 -33q107 0 145.5 26.5 t38.5 90.5v28q0 48 -20.5 78t-67.5 49l-199 78q-89 33 -136.5 94.5t-47.5 139.5z" />
<glyph unicode="t" horiz-adv-x="702" d="M31 856v143h143l33 267h141v-267h266v-143h-266v-586q0 -77 32 -111t99 -34q90 0 172 16v-145q-95 -21 -164 -21q-163 0 -238 73t-75 237v571h-143z" />
<glyph unicode="u" horiz-adv-x="1015" d="M154 317v682h174v-651q0 -211 133 -211q60 0 120.5 44t106.5 122v696h174v-999h-164v143q-114 -168 -272 -168q-128 0 -200 87t-72 255z" />
<glyph unicode="v" horiz-adv-x="905" d="M31 999h184l238 -872l237 872h184l-309 -999h-227z" />
<glyph unicode="w" horiz-adv-x="1409" d="M51 999h185l155 -845l201 845h225l199 -845l158 845h184l-225 -999h-220l-208 848l-211 -848h-220z" />
<glyph unicode="x" horiz-adv-x="944" d="M51 0l309 516l-288 483h198l201 -356l201 356h198l-288 -483l311 -516h-199l-223 389l-221 -389h-199z" />
<glyph unicode="y" horiz-adv-x="913" d="M31 999h190l215 -874l266 874h181l-459 -1378h-174l131 379h-66z" />
<glyph unicode="z" horiz-adv-x="872" d="M92 0v133l459 713h-449v153h658v-133l-457 -712h457v-154h-668z" />
<glyph unicode="{" d="M242 612v144h51q75 0 104 35t29 129v370q0 99 15.5 159.5t57 98t106 51t171.5 13.5v-144q-107 0 -141.5 -28t-34.5 -121v-399q0 -104 -28.5 -160t-90.5 -76q63 -22 91 -76.5t28 -158.5v-367q0 -116 31.5 -149t144.5 -33v-144q-206 0 -278 68.5t-72 263.5v361 q0 93 -29.5 128t-103.5 35h-51z" />
<glyph unicode="|" d="M444 -229v1863h174v-1863h-174z" />
<glyph unicode="}" d="M287 -100q113 0 144.5 33t31.5 149v367q0 104 28 158.5t91 76.5q-62 20 -90.5 76t-28.5 160v399q0 93 -34.5 121t-141.5 28v144q107 0 171.5 -13.5t106 -51t57 -98t15.5 -159.5v-370q0 -94 29 -129t104 -35h51v-144h-51q-74 0 -103.5 -35t-29.5 -128v-361 q0 -195 -72 -263.5t-278 -68.5v144z" />
<glyph unicode="~" d="M170 520v144q10 6 27.5 15.5t71 25.5t106.5 16q74 0 163.5 -28.5t155.5 -28.5q34 0 84 13t84 25l33 13v-144q-10 -6 -27.5 -15.5t-71 -25.5t-106.5 -16q-73 0 -161.5 28.5t-157.5 28.5q-34 0 -84 -12.5t-83 -25.5z" />
<glyph unicode="&#xa1;" horiz-adv-x="432" d="M102 918v59q0 44 29.5 68t83.5 24q55 0 85 -24t30 -68v-59q0 -46 -30 -70.5t-85 -24.5q-54 0 -83.5 24.5t-29.5 70.5zM119 -379l14 1014h166l14 -1014h-194z" />
<glyph unicode="&#xa2;" d="M246 348v303q0 315 266 363v166h154v-158q41 -2 151 -18l-4 -154q-120 20 -197 20q-96 0 -146 -52.5t-50 -151.5v-330q0 -103 51 -155t145 -52q71 0 197 21l4 -154q-120 -18 -151 -19v-157h-154v166q-266 45 -266 362z" />
<glyph unicode="&#xa3;" d="M145 625v143h144v168q0 163 83.5 241t258.5 78q91 0 194 -30v-140q-92 27 -168 27q-106 0 -150 -39.5t-44 -126.5v-178h194v-143h-194v-248q0 -159 -84 -225h539v-152h-711v123q82 101 82 217v285h-144z" />
<glyph unicode="&#xa4;" d="M92 305l127 125q-47 83 -47 191v41q0 101 39 178l-119 116l115 115l110 -113q88 54 211 54q126 0 215 -58l115 117l115 -115l-125 -122q35 -71 35 -172v-41q0 -103 -43 -185l133 -131l-115 -115l-127 129q-82 -49 -203 -49q-118 0 -198 45l-123 -125zM340 621 q0 -93 45.5 -148t142.5 -55q96 0 141.5 55.5t45.5 147.5v41q0 91 -45 145.5t-142 54.5q-96 0 -142 -54.5t-46 -145.5v-41z" />
<glyph unicode="&#xa5;" d="M55 1231h195l282 -658l281 658h195l-330 -701h133v-143h-193v-84h193v-143h-193v-160h-174v160h-194v143h194v84h-194v143h135z" />
<glyph unicode="&#xa6;" d="M444 -236v805h174v-805h-174zM444 836v804h174v-804h-174z" />
<glyph unicode="&#xa7;" horiz-adv-x="825" d="M31 549v49q0 106 56.5 179.5t143.5 84.5q-63 22 -101 80.5t-38 138.5v58q0 145 79 214.5t263 69.5q93 0 213 -24l-4 -146q-112 25 -201 25q-97 0 -134.5 -29t-37.5 -94v-68q0 -43 19 -68t65 -44l219 -84q222 -83 222 -246v-63q0 -94 -51 -162t-142 -86q60 -23 95.5 -80 t35.5 -133v-78q0 -146 -83.5 -216.5t-274.5 -70.5q-97 0 -252 31l4 154q139 -31 248 -31q103 0 141.5 26t38.5 91v67q0 54 -19.5 85t-64.5 46l-219 76q-119 41 -170 99t-51 149zM209 551q0 -35 27 -60t98 -49l94 -30q91 4 139.5 49.5t48.5 116.5v47q0 90 -124 127l-76 22 q-98 -1 -152.5 -49.5t-54.5 -122.5v-51z" />
<glyph unicode="&#xa8;" horiz-adv-x="882" d="M154 1272v59q0 92 110 92q113 0 113 -92v-59q0 -43 -29 -66.5t-84 -23.5q-52 0 -81 23.5t-29 66.5zM506 1272v59q0 92 110 92q113 0 113 -92v-59q0 -43 -29.5 -66.5t-83.5 -23.5t-82 23.5t-28 66.5z" />
<glyph unicode="&#xa9;" horiz-adv-x="1323" d="M143 403v424q0 199 127.5 317t391.5 118t391 -118t127 -317v-424q0 -199 -127 -316.5t-391 -117.5t-391.5 117.5t-127.5 316.5zM289 381q0 -126 98 -201.5t275 -75.5q176 0 274 75.5t98 201.5v471q0 125 -97.5 199.5t-274.5 74.5t-275 -75t-98 -201v-469zM408 567v115 q0 148 71.5 224.5t210.5 76.5q74 0 160 -14l-4 -135q-85 10 -156 10q-117 0 -117 -162v-113q0 -82 31 -124t86 -42q62 0 156 11l4 -135q-105 -15 -160 -15q-282 0 -282 303z" />
<glyph unicode="&#xaa;" d="M184 0v150h695v-150h-695zM184 713v57q0 110 84 185t226 75q79 0 211 -26v53q0 89 -39.5 127.5t-124.5 38.5q-91 0 -277 -31v143q199 31 277 31q175 0 256.5 -79.5t81.5 -250.5v-573h-166v160q-120 -185 -269 -185q-119 0 -189.5 74.5t-70.5 200.5zM360 725q0 -61 34 -96 t89 -35q132 0 222 156v127q-77 14 -168 14q-85 0 -131 -38.5t-46 -104.5v-23z" />
<glyph unicode="&#xab;" horiz-adv-x="999" d="M133 651l205 348h180l-190 -348l190 -348h-180zM481 651l205 348h180l-190 -348l190 -348h-180z" />
<glyph unicode="&#xac;" d="M162 543v143h739v-455h-156v312h-583z" />
<glyph unicode="&#xad;" horiz-adv-x="716" d="M133 539v133h451v-133h-451z" />
<glyph unicode="&#xae;" horiz-adv-x="1097" d="M154 981v70q0 180 94 276t301 96t301 -96t94 -276v-70q0 -180 -94 -276.5t-301 -96.5t-301 96.5t-94 276.5zM258 963q0 -129 69 -193.5t222 -64.5t222 64.5t69 193.5v108q0 130 -68.5 193t-222.5 63q-153 0 -222 -64.5t-69 -193.5v-106zM399 780v477q137 5 152 5 q186 0 186 -144v-22q0 -42 -25.5 -76t-68.5 -53l111 -187h-103l-98 172h-66v-172h-88zM487 1036q29 -2 74 -2q86 0 86 64v18q0 33 -21 48.5t-69 15.5q-38 0 -70 -4v-140z" />
<glyph unicode="&#xaf;" horiz-adv-x="788" d="M174 1241v154h440v-154h-440z" />
<glyph unicode="&#xb0;" horiz-adv-x="1228" d="M158 1024v45q0 173 86 263.5t254 90.5t253 -90.5t85 -263.5v-45q0 -173 -85 -263.5t-253 -90.5t-254 90.5t-86 263.5zM324 1024q0 -209 174 -209q172 0 172 209v45q0 209 -172 209q-174 0 -174 -209v-45z" />
<glyph unicode="&#xb1;" d="M166 0v143h729v-143h-729zM168 543v145h287v311h155v-311h287v-145h-287v-312h-155v312h-287z" />
<glyph unicode="&#xb2;" horiz-adv-x="798" d="M137 371v123l303 348q39 45 51.5 73.5t12.5 73.5v33q0 50 -34 73t-114 23q-93 0 -200 -35v134q121 32 200 32q157 0 230 -56t73 -165v-37q0 -71 -28 -131.5t-101 -140.5l-198 -213h330v-135h-525z" />
<glyph unicode="&#xb3;" horiz-adv-x="798" d="M152 373v125q113 -17 202 -17q131 0 131 115v27q0 67 -36 99t-119 32h-119v120h119q76 0 107.5 30.5t31.5 96.5v27q0 51 -29 73.5t-94 22.5q-62 0 -194 -20v127q122 18 194 18q139 0 210 -58.5t71 -162.5v-14q0 -68 -29 -113.5t-94 -75.5q68 -27 105.5 -82t37.5 -125v-14 q0 -112 -77.5 -181t-219.5 -69q-69 0 -198 19z" />
<glyph unicode="&#xb4;" horiz-adv-x="636" d="M154 1118l155 285h174l-194 -285h-135z" />
<glyph unicode="&#xb5;" d="M178 -379v1378h174v-651q0 -211 133 -211q60 0 121 44t107 122v696h174v-999h-164v143q-55 -81 -121 -124.5t-131 -43.5q-72 0 -119 29v-383h-174z" />
<glyph unicode="&#xb6;" horiz-adv-x="1118" d="M41 887v260q0 119 64.5 185.5t189.5 66.5h278v-1778h-176v1020h-102q-124 0 -189 62.5t-65 183.5zM209 938q0 -80 24 -111.5t82 -31.5h82v454h-82q-58 0 -82 -30.5t-24 -112.5v-168zM788 -379v1778h177v-1778h-177z" />
<glyph unicode="&#xb7;" horiz-adv-x="452" d="M113 479v60q0 46 29 70t83 24q56 0 85.5 -24t29.5 -70v-60q0 -44 -30 -68t-85 -24q-54 0 -83 24t-29 68z" />
<glyph unicode="&#xb8;" horiz-adv-x="612" d="M94 -285q58 -8 74 -8q84 0 84 49v27q-1 30 -17.5 41.5t-52.5 11.5h-61v43l55 178h129l-43 -141h21q44 0 75 -37t31 -94v-31q0 -81 -47.5 -119t-146.5 -38q-39 0 -101 10v108z" />
<glyph unicode="&#xb9;" horiz-adv-x="798" d="M119 1135l262 98h133v-727h164v-135h-516v135h188v571l-200 -80z" />
<glyph unicode="&#xba;" d="M172 813v180q0 181 89.5 277t270.5 96t271 -96.5t90 -276.5v-180q0 -185 -91.5 -279t-269.5 -94q-176 0 -268 94t-92 279zM182 0v150h701v-150h-701zM346 799q0 -103 48.5 -158t137.5 -55t138 55t49 158v211q0 103 -49 157t-138 54t-137.5 -55t-48.5 -158v-209z" />
<glyph unicode="&#xbb;" horiz-adv-x="999" d="M133 303l191 348l-191 348h180l205 -348l-205 -348h-180zM481 303l191 348l-191 348h181l204 -348l-204 -348h-181z" />
<glyph unicode="&#xbc;" horiz-adv-x="2086" d="M119 1135l262 98h133v-727h164v-135h-516v135h188v571l-200 -80zM637 0l625 1231h170l-625 -1231h-170zM1356 270l213 592h147l-190 -547h223v271h156v-271h114v-131h-114v-184h-158v184h-350z" />
<glyph unicode="&#xbd;" horiz-adv-x="2070" d="M119 1135l262 98h133v-727h164v-135h-516v135h188v571l-200 -80zM637 0l625 1231h170l-625 -1231h-170zM1409 0v123l303 348q39 45 51.5 73.5t12.5 73.5v33q0 51 -34 74t-114 23q-94 0 -201 -35v133q125 33 201 33q303 0 303 -222v-36q0 -71 -28 -132t-101 -141 l-198 -213h329v-135h-524z" />
<glyph unicode="&#xbe;" horiz-adv-x="2048" d="M152 373v125q113 -17 202 -17q131 0 131 115v27q0 67 -36 99t-119 32h-119v120h119q76 0 107.5 30.5t31.5 96.5v27q0 51 -29 73.5t-94 22.5q-62 0 -194 -20v127q122 18 194 18q139 0 210 -58.5t71 -162.5v-14q0 -68 -29 -113.5t-94 -75.5q68 -27 105.5 -82t37.5 -125v-14 q0 -112 -77.5 -181t-219.5 -69q-69 0 -198 19zM598 0l625 1231h170l-625 -1231h-170zM1317 270l213 592h147l-190 -547h223v271h156v-271h114v-131h-114v-184h-158v184h-350z" />
<glyph unicode="&#xbf;" horiz-adv-x="808" d="M113 -70q0 93 41 175.5t137 183.5l67 73q33 35 44.5 65t11.5 91v92h166v-65q0 -100 -14 -143.5t-68 -106.5l-119 -139q-56 -66 -74 -112t-18 -118v-45q0 -77 46.5 -111t166.5 -34q92 0 258 37v-144q-160 -32 -269 -32q-199 0 -287.5 71.5t-88.5 210.5v51zM379 893v59 q0 44 30 68t85 24q54 0 83 -24t29 -68v-59q0 -46 -29 -70t-83 -24q-56 0 -85.5 24t-29.5 70z" />
<glyph unicode="&#xc0;" horiz-adv-x="1097" d="M31 0l409 1341h215l412 -1341h-188l-88 311h-494l-88 -311h-178zM340 467h405l-200 715zM340 1698h182l135 -244h-143z" />
<glyph unicode="&#xc1;" horiz-adv-x="1097" d="M31 0l409 1341h215l412 -1341h-188l-88 311h-494l-88 -311h-178zM340 467h405l-200 715zM420 1454l135 244h182l-174 -244h-143z" />
<glyph unicode="&#xc2;" horiz-adv-x="1097" d="M31 0l409 1341h215l412 -1341h-188l-88 311h-494l-88 -311h-178zM266 1456v139l287 125l287 -125v-139l-287 100zM340 467h405l-200 715z" />
<glyph unicode="&#xc3;" horiz-adv-x="1097" d="M31 0l409 1341h215l412 -1341h-188l-88 311h-494l-88 -311h-178zM266 1454v143q8 7 22 17.5t57 27.5t85 17q60 0 137.5 -25.5t112.5 -25.5q30 0 70 13t65 25l25 13v-143q-8 -7 -22 -17.5t-57 -27.5t-85 -17q-46 0 -127.5 25.5t-122.5 25.5q-30 0 -70 -12.5t-65 -25.5z M340 467h405l-200 715z" />
<glyph unicode="&#xc4;" horiz-adv-x="1097" d="M31 0l409 1341h215l412 -1341h-188l-88 311h-494l-88 -311h-178zM258 1544v60q0 45 29 68.5t82 23.5q112 0 112 -92v-60q0 -43 -28.5 -66.5t-83.5 -23.5q-53 0 -82 23.5t-29 66.5zM340 467h405l-200 715zM610 1544v60q0 92 111 92q113 0 113 -92v-60q0 -43 -29.5 -66.5 t-83.5 -23.5t-82.5 23.5t-28.5 66.5z" />
<glyph unicode="&#xc5;" horiz-adv-x="1097" d="M31 0l383 1255q-101 50 -101 179q0 101 62.5 152.5t173.5 51.5q109 0 172 -51.5t63 -152.5q0 -131 -102 -181l385 -1253h-188l-88 311h-494l-88 -311h-178zM340 467h405l-200 715zM446 1434q0 -93 103 -93q102 0 102 93q0 92 -102 92q-103 0 -103 -92z" />
<glyph unicode="&#xc6;" horiz-adv-x="1585" d="M31 0l600 1341h821v-157h-532v-424h491v-156h-491v-446h532v-158h-707v311h-397l-135 -311h-182zM416 467h329v756z" />
<glyph unicode="&#xc7;" horiz-adv-x="974" d="M143 389v563q0 214 101 314t336 100q26 0 54 -2t61.5 -6t53 -7t60.5 -9.5t53 -8.5l-4 -153q-181 32 -278 32q-140 0 -201.5 -57t-61.5 -190v-586q0 -132 61 -189t202 -57q91 0 278 33l4 -158q-211 -31 -256 -33l-18 -59h20q44 0 75.5 -37t31.5 -94v-31q0 -81 -48 -119 t-147 -38q-38 0 -100 10v108q58 -8 74 -8q84 0 84 49v27q-1 30 -17.5 41.5t-52.5 11.5h-62v43l31 103q-180 20 -257 119t-77 288z" />
<glyph unicode="&#xc8;" horiz-adv-x="993" d="M154 0v1341h706v-157h-532v-424h491v-156h-491v-446h532v-158h-706zM328 1698h182l135 -244h-143z" />
<glyph unicode="&#xc9;" horiz-adv-x="993" d="M154 0v1341h706v-157h-532v-424h491v-156h-491v-446h532v-158h-706zM399 1454l136 244h182l-174 -244h-144z" />
<glyph unicode="&#xca;" horiz-adv-x="993" d="M154 0v1341h706v-157h-532v-424h491v-156h-491v-446h532v-158h-706zM254 1456v139l287 125l286 -125v-139l-286 100z" />
<glyph unicode="&#xcb;" horiz-adv-x="993" d="M154 0v1341h706v-157h-532v-424h491v-156h-491v-446h532v-158h-706zM211 1544v60q0 45 29 68.5t82 23.5q112 0 112 -92v-60q0 -43 -28.5 -66.5t-83.5 -23.5q-53 0 -82 23.5t-29 66.5zM563 1544v60q0 92 111 92q112 0 112 -92v-60q0 -43 -29 -66.5t-83 -23.5t-82.5 23.5 t-28.5 66.5z" />
<glyph unicode="&#xcc;" horiz-adv-x="481" d="M35 1698h182l135 -244h-143zM154 0v1341h174v-1341h-174z" />
<glyph unicode="&#xcd;" horiz-adv-x="481" d="M113 1454l135 244h182l-174 -244h-143zM154 0v1341h174v-1341h-174z" />
<glyph unicode="&#xce;" horiz-adv-x="481" d="M-49 1456v139l287 125l286 -125v-139l-286 100zM154 0v1341h174v-1341h-174z" />
<glyph unicode="&#xcf;" horiz-adv-x="481" d="M-53 1544v60q0 92 110 92q113 0 113 -92v-60q0 -43 -29 -66.5t-84 -23.5q-52 0 -81 23.5t-29 66.5zM154 0v1341h174v-1341h-174zM299 1544v60q0 92 111 92q112 0 112 -92v-60q0 -43 -29 -66.5t-83 -23.5t-82.5 23.5t-28.5 66.5z" />
<glyph unicode="&#xd0;" horiz-adv-x="1169" d="M10 621v143h144v594q184 8 374 8q244 0 376 -138.5t132 -398.5v-335q0 -251 -131.5 -385t-386.5 -134q-158 0 -364 13v633h-144zM328 137q120 -12 190 -12q158 0 251 91.5t93 262.5v363q0 186 -90.5 281.5t-253.5 95.5q-32 0 -190 -5v-450h276v-143h-276v-484z" />
<glyph unicode="&#xd1;" horiz-adv-x="1191" d="M154 0v1341h278l434 -1132v1132h172v-1341h-270l-442 1133v-1133h-172zM356 1454v143q8 7 22 17.5t57 27.5t85 17q60 0 137.5 -25.5t112.5 -25.5q30 0 70 13t65 25l25 13v-143q-8 -7 -22 -17.5t-57 -27.5t-85 -17q-46 0 -127.5 25.5t-122.5 25.5q-30 0 -70 -12.5 t-65 -25.5z" />
<glyph unicode="&#xd2;" horiz-adv-x="1179" d="M143 416v510q0 211 108.5 325.5t338.5 114.5q446 0 446 -440v-510q0 -211 -108 -326t-338 -115t-338.5 115t-108.5 326zM317 397q0 -131 69.5 -199.5t203.5 -68.5t203 68.5t69 199.5v547q0 130 -68.5 199t-203.5 69t-204 -68t-69 -198v-549zM381 1698h182l135 -244h-143z " />
<glyph unicode="&#xd3;" horiz-adv-x="1179" d="M143 416v510q0 211 108.5 325.5t338.5 114.5q446 0 446 -440v-510q0 -211 -108 -326t-338 -115t-338.5 115t-108.5 326zM317 397q0 -131 69.5 -199.5t203.5 -68.5t203 68.5t69 199.5v547q0 130 -68.5 199t-203.5 69t-204 -68t-69 -198v-549zM461 1454l135 244h182 l-174 -244h-143z" />
<glyph unicode="&#xd4;" horiz-adv-x="1179" d="M143 416v510q0 211 108.5 325.5t338.5 114.5q446 0 446 -440v-510q0 -211 -108 -326t-338 -115t-338.5 115t-108.5 326zM303 1456v139l287 125l287 -125v-139l-287 100zM317 397q0 -131 69.5 -199.5t203.5 -68.5t203 68.5t69 199.5v547q0 130 -68.5 199t-203.5 69 t-204 -68t-69 -198v-549z" />
<glyph unicode="&#xd5;" horiz-adv-x="1179" d="M143 416v510q0 211 108.5 325.5t338.5 114.5q446 0 446 -440v-510q0 -211 -108 -326t-338 -115t-338.5 115t-108.5 326zM303 1454v143q8 7 22 17.5t57 27.5t85 17q60 0 137.5 -25.5t112.5 -25.5q30 0 70 13t65 25l25 13v-143q-8 -7 -22 -17.5t-57 -27.5t-85 -17 q-46 0 -127.5 25.5t-122.5 25.5q-30 0 -70 -12.5t-65 -25.5zM317 397q0 -131 69.5 -199.5t203.5 -68.5t203 68.5t69 199.5v547q0 130 -68.5 199t-203.5 69t-204 -68t-69 -198v-549z" />
<glyph unicode="&#xd6;" horiz-adv-x="1179" d="M143 416v510q0 211 108.5 325.5t338.5 114.5q446 0 446 -440v-510q0 -211 -108 -326t-338 -115t-338.5 115t-108.5 326zM303 1544v60q0 45 29 68.5t82 23.5q112 0 112 -92v-60q0 -43 -28.5 -66.5t-83.5 -23.5q-53 0 -82 23.5t-29 66.5zM317 397q0 -131 69.5 -199.5 t203.5 -68.5t203 68.5t69 199.5v547q0 130 -68.5 199t-203.5 69t-204 -68t-69 -198v-549zM655 1544v60q0 92 111 92q113 0 113 -92v-60q0 -43 -29.5 -66.5t-83.5 -23.5t-82.5 23.5t-28.5 66.5z" />
<glyph unicode="&#xd7;" d="M205 831l108 111l222 -221l217 217l102 -102l-217 -218l221 -221l-110 -108l-222 219l-215 -215l-102 102l215 215z" />
<glyph unicode="&#xd8;" horiz-adv-x="1179" d="M72 -102l139 241q-68 104 -68 277v510q0 211 108.5 325.5t338.5 114.5q163 0 266 -59l78 137h174l-137 -246q65 -104 65 -272v-510q0 -211 -108 -326t-338 -115q-157 0 -264 58l-80 -135h-174zM317 397q0 -36 7 -80l460 834q-67 61 -194 61q-135 0 -204 -68t-69 -198 v-549zM397 186q66 -57 193 -57q134 0 203 68.5t69 199.5v547q0 40 -6 74z" />
<glyph unicode="&#xd9;" horiz-adv-x="1179" d="M154 420v921h174v-944q0 -132 68 -200t194 -68t194 68t68 200v944h174v-917q0 -218 -110 -333.5t-326 -115.5q-213 0 -324.5 112.5t-111.5 332.5zM406 1698h182l135 -244h-143z" />
<glyph unicode="&#xda;" horiz-adv-x="1179" d="M154 420v921h174v-944q0 -132 68 -200t194 -68t194 68t68 200v944h174v-917q0 -218 -110 -333.5t-326 -115.5q-213 0 -324.5 112.5t-111.5 332.5zM492 1454l135 244h182l-174 -244h-143z" />
<glyph unicode="&#xdb;" horiz-adv-x="1179" d="M154 420v921h174v-944q0 -132 68 -200t194 -68t194 68t68 200v944h174v-917q0 -218 -110 -333.5t-326 -115.5q-213 0 -324.5 112.5t-111.5 332.5zM324 1456v139l286 125l287 -125v-139l-287 100z" />
<glyph unicode="&#xdc;" horiz-adv-x="1179" d="M154 420v921h174v-944q0 -132 68 -200t194 -68t194 68t68 200v944h174v-917q0 -218 -110 -333.5t-326 -115.5q-213 0 -324.5 112.5t-111.5 332.5zM319 1544v60q0 45 29 68.5t82 23.5q113 0 113 -92v-60q0 -43 -29 -66.5t-84 -23.5q-53 0 -82 23.5t-29 66.5zM672 1544v60 q0 92 110 92q113 0 113 -92v-60q0 -43 -29.5 -66.5t-83.5 -23.5t-82 23.5t-28 66.5z" />
<glyph unicode="&#xdd;" horiz-adv-x="1013" d="M31 1341h198l279 -696l280 696h195l-389 -880v-461h-174v461zM393 1454l135 244h183l-174 -244h-144z" />
<glyph unicode="&#xde;" horiz-adv-x="1146" d="M154 0v1341h174v-249q99 12 180 12q239 0 356 -97t117 -276v-49q0 -190 -114.5 -294.5t-342.5 -104.5q-92 0 -196 16v-299h-174zM328 449q130 -17 188 -17q291 0 291 258v35q0 116 -73 174.5t-230 58.5q-68 0 -176 -10v-499z" />
<glyph unicode="&#xdf;" horiz-adv-x="995" d="M154 0v1094q0 174 76.5 251.5t254.5 77.5q145 0 230.5 -73t85.5 -191v-55q0 -48 -18 -89.5t-44 -71t-52 -56t-44 -55t-18 -56.5v-31q0 -31 9.5 -49.5t35.5 -33.5l96 -58q94 -47 136 -108t42 -148v-67q0 -167 -64 -236.5t-223 -69.5q-45 0 -200 31l4 154q140 -31 196 -31 q55 0 82 32t27 103v64q0 46 -17.5 74t-60.5 53l-98 55q-76 42 -104.5 90.5t-28.5 130.5v39q0 48 17.5 87t42.5 65t50 50.5t42.5 57.5t17.5 72v57q0 55 -39.5 86t-114.5 31q-78 0 -111.5 -36.5t-33.5 -125.5v-1114h-174z" />
<glyph unicode="&#xe0;" horiz-adv-x="960" d="M113 281v57q0 126 83.5 207.5t225.5 81.5q74 0 211 -27v109q0 89 -39.5 127t-124.5 38q-96 0 -276 -30v149q199 31 276 31q175 0 256.5 -79.5t81.5 -250.5v-694h-166v160q-120 -185 -268 -185q-118 0 -189 82.5t-71 223.5zM289 293q0 -76 34.5 -119t88.5 -43 q55 0 113.5 48t107.5 136v158q-77 14 -168 14q-85 0 -130.5 -45.5t-45.5 -126.5v-22zM315 1403h174l156 -285h-135z" />
<glyph unicode="&#xe1;" horiz-adv-x="960" d="M113 281v57q0 126 83.5 207.5t225.5 81.5q74 0 211 -27v109q0 89 -39.5 127t-124.5 38q-96 0 -276 -30v149q199 31 276 31q175 0 256.5 -79.5t81.5 -250.5v-694h-166v160q-120 -185 -268 -185q-118 0 -189 82.5t-71 223.5zM289 293q0 -76 34.5 -119t88.5 -43 q55 0 113.5 48t107.5 136v158q-77 14 -168 14q-85 0 -130.5 -45.5t-45.5 -126.5v-22zM377 1118l155 285h175l-195 -285h-135z" />
<glyph unicode="&#xe2;" horiz-adv-x="960" d="M113 281v57q0 126 83.5 207.5t225.5 81.5q74 0 211 -27v109q0 89 -39.5 127t-124.5 38q-96 0 -276 -30v149q199 31 276 31q175 0 256.5 -79.5t81.5 -250.5v-694h-166v160q-120 -185 -268 -185q-118 0 -189 82.5t-71 223.5zM221 1118v144l266 151l266 -151v-144l-266 133z M289 293q0 -76 34.5 -119t88.5 -43q55 0 113.5 48t107.5 136v158q-77 14 -168 14q-85 0 -130.5 -45.5t-45.5 -126.5v-22z" />
<glyph unicode="&#xe3;" horiz-adv-x="960" d="M113 281v57q0 126 83.5 207.5t225.5 81.5q74 0 211 -27v109q0 89 -39.5 127t-124.5 38q-96 0 -276 -30v149q199 31 276 31q175 0 256.5 -79.5t81.5 -250.5v-694h-166v160q-120 -185 -268 -185q-118 0 -189 82.5t-71 223.5zM227 1198v143q18 18 65.5 40t98.5 22 q55 0 116.5 -25.5t92.5 -25.5q34 0 87.5 19t72.5 32v-143q-24 -21 -67 -41.5t-97 -20.5q-42 0 -107 25.5t-102 25.5q-32 0 -83.5 -17.5t-76.5 -33.5zM289 293q0 -76 34.5 -119t88.5 -43q55 0 113.5 48t107.5 136v158q-77 14 -168 14q-85 0 -130.5 -45.5t-45.5 -126.5v-22z " />
<glyph unicode="&#xe4;" horiz-adv-x="960" d="M113 281v57q0 126 83.5 207.5t225.5 81.5q74 0 211 -27v109q0 89 -39.5 127t-124.5 38q-96 0 -276 -30v149q199 31 276 31q175 0 256.5 -79.5t81.5 -250.5v-694h-166v160q-120 -185 -268 -185q-118 0 -189 82.5t-71 223.5zM189 1272v59q0 92 110 92q113 0 113 -92v-59 q0 -43 -29 -66.5t-84 -23.5q-52 0 -81 23.5t-29 66.5zM289 293q0 -76 34.5 -119t88.5 -43q55 0 113.5 48t107.5 136v158q-77 14 -168 14q-85 0 -130.5 -45.5t-45.5 -126.5v-22zM541 1272v59q0 92 110 92q113 0 113 -92v-59q0 -43 -29.5 -66.5t-83.5 -23.5t-82 23.5t-28 66.5 z" />
<glyph unicode="&#xe5;" horiz-adv-x="960" d="M113 281v57q0 126 83.5 207.5t225.5 81.5q74 0 211 -27v109q0 89 -39.5 127t-124.5 38q-96 0 -276 -30v149q199 31 276 31q175 0 256.5 -79.5t81.5 -250.5v-694h-166v160q-120 -185 -268 -185q-118 0 -189 82.5t-71 223.5zM258 1280q0 102 63 153.5t173 51.5 q109 0 172 -52t63 -153q0 -102 -62.5 -153.5t-172.5 -51.5q-109 0 -172.5 52t-63.5 153zM289 293q0 -76 34.5 -119t88.5 -43q55 0 113.5 48t107.5 136v158q-77 14 -168 14q-85 0 -130.5 -45.5t-45.5 -126.5v-22zM391 1280q0 -92 103 -92q102 0 102 92t-102 92 q-103 0 -103 -92z" />
<glyph unicode="&#xe6;" horiz-adv-x="1484" d="M113 281v57q0 125 83.5 207t225.5 82q74 0 211 -27v119q0 86 -39.5 124t-124.5 38q-90 0 -276 -31v143q199 31 276 31q195 0 268 -117q75 117 250 117q171 0 262.5 -94t91.5 -273v-211h-534v-120q0 -103 52 -150t161 -47q101 0 291 37l-8 -154q-208 -37 -283 -37 q-151 0 -232.5 52t-111.5 157q-132 -209 -303 -209q-119 0 -189.5 82.5t-70.5 223.5zM289 293q0 -75 34 -118.5t89 -43.5t113.5 48t107.5 136v158q-77 14 -168 14q-85 0 -130.5 -45.5t-45.5 -126.5v-22zM807 590h360v88q0 97 -48 149t-132 52q-81 0 -129 -48t-51 -137v-104z " />
<glyph unicode="&#xe7;" horiz-adv-x="821" d="M143 348v303q0 373 371 373q72 0 201 -20l-4 -154q-120 20 -197 20q-96 0 -146.5 -52.5t-50.5 -151.5v-330q0 -102 51.5 -154.5t145.5 -52.5q71 0 197 21l4 -154q-135 -21 -201 -21l-18 -59h20q44 0 75.5 -37t31.5 -94v-31q0 -81 -48 -119t-147 -38q-38 0 -100 10v108 q58 -8 73 -8q84 0 84 49v27q-1 30 -17 41.5t-52 11.5h-62v43l33 111q-244 54 -244 358z" />
<glyph unicode="&#xe8;" horiz-adv-x="956" d="M143 336v321q0 179 87 273t262 94q172 0 262 -94t90 -273v-211h-527v-120q0 -104 49.5 -150.5t157.5 -46.5q99 0 289 37l-8 -154q-208 -37 -281 -37q-203 0 -292 88t-89 273zM317 586h353v92q0 99 -48 150t-130 51q-80 0 -127.5 -51t-47.5 -144v-98zM317 1403h174 l156 -285h-135z" />
<glyph unicode="&#xe9;" horiz-adv-x="956" d="M143 336v321q0 179 87 273t262 94q172 0 262 -94t90 -273v-211h-527v-120q0 -104 49.5 -150.5t157.5 -46.5q99 0 289 37l-8 -154q-208 -37 -281 -37q-203 0 -292 88t-89 273zM317 586h353v92q0 99 -48 150t-130 51q-80 0 -127.5 -51t-47.5 -144v-98zM342 1118l156 285 h174l-195 -285h-135z" />
<glyph unicode="&#xea;" horiz-adv-x="956" d="M143 336v321q0 179 87 273t262 94q172 0 262 -94t90 -273v-211h-527v-120q0 -104 49.5 -150.5t157.5 -46.5q99 0 289 37l-8 -154q-208 -37 -281 -37q-203 0 -292 88t-89 273zM232 1118v144l266 151l266 -151v-144l-266 133zM317 586h353v92q0 99 -48 150t-130 51 q-80 0 -127.5 -51t-47.5 -144v-98z" />
<glyph unicode="&#xeb;" horiz-adv-x="956" d="M143 336v321q0 179 87 273t262 94q172 0 262 -94t90 -273v-211h-527v-120q0 -104 49.5 -150.5t157.5 -46.5q99 0 289 37l-8 -154q-208 -37 -281 -37q-203 0 -292 88t-89 273zM213 1272v59q0 45 29 68.5t82 23.5q112 0 112 -92v-59q0 -43 -28.5 -66.5t-83.5 -23.5 q-53 0 -82 23.5t-29 66.5zM317 586h353v92q0 99 -48 150t-130 51q-80 0 -127.5 -51t-47.5 -144v-98zM565 1272v59q0 92 111 92q112 0 112 -92v-59q0 -43 -29 -66.5t-83 -23.5t-82.5 23.5t-28.5 66.5z" />
<glyph unicode="&#xec;" horiz-adv-x="501" d="M78 1403h174l156 -285h-135zM164 0v999h174v-999h-174z" />
<glyph unicode="&#xed;" horiz-adv-x="501" d="M98 1118l156 285h174l-195 -285h-135zM164 0v999h174v-999h-174z" />
<glyph unicode="&#xee;" horiz-adv-x="501" d="M-14 1118v144l266 151l266 -151v-144l-266 133zM164 0v999h174v-999h-174z" />
<glyph unicode="&#xef;" horiz-adv-x="501" d="M-41 1272v59q0 45 29 68.5t82 23.5q112 0 112 -92v-59q0 -43 -28.5 -66.5t-83.5 -23.5q-53 0 -82 23.5t-29 66.5zM164 0v999h174v-999h-174zM311 1272v59q0 92 111 92q113 0 113 -92v-59q0 -43 -29.5 -66.5t-83.5 -23.5t-82.5 23.5t-28.5 66.5z" />
<glyph unicode="&#xf0;" horiz-adv-x="1017" d="M154 322v235q0 167 72 254.5t200 87.5q150 0 262 -160v52q0 180 -86 313l-240 -70v135l140 41q-114 82 -266 82v131q289 0 446 -161l203 59v-135l-121 -35q98 -179 98 -455v-348q0 -181 -90 -277t-264 -96q-185 0 -269.5 84t-84.5 263zM328 303q0 -182 180 -182t180 182 v272q-49 82 -109 125t-118 43q-133 0 -133 -211v-229z" />
<glyph unicode="&#xf1;" horiz-adv-x="1005" d="M154 0v999h163v-149q113 174 273 174q131 0 201.5 -89t70.5 -253v-682h-174v657q0 205 -133 205q-60 0 -121.5 -45t-105.5 -123v-694h-174zM242 1198v143q18 18 65.5 40t98.5 22q55 0 116.5 -25.5t92.5 -25.5q34 0 87 19t72 32v-143q-24 -21 -67 -41.5t-97 -20.5 q-42 0 -106.5 25.5t-101.5 25.5q-32 0 -83.5 -17.5t-76.5 -33.5z" />
<glyph unicode="&#xf2;" horiz-adv-x="1007" d="M143 348v303q0 178 89 275.5t272 97.5t271.5 -97t88.5 -276v-303q0 -179 -88.5 -276t-271.5 -97t-272 97.5t-89 275.5zM317 334q0 -103 49 -158t138 -55t137.5 55t48.5 158v334q0 103 -48.5 157t-137.5 54t-138 -55t-49 -158v-332zM321 1403h174l156 -285h-135z" />
<glyph unicode="&#xf3;" horiz-adv-x="1007" d="M143 348v303q0 178 89 275.5t272 97.5t271.5 -97t88.5 -276v-303q0 -179 -88.5 -276t-271.5 -97t-272 97.5t-89 275.5zM317 334q0 -103 49 -158t138 -55t137.5 55t48.5 158v334q0 103 -48.5 157t-137.5 54t-138 -55t-49 -158v-332zM342 1118l156 285h174l-195 -285h-135z " />
<glyph unicode="&#xf4;" horiz-adv-x="1007" d="M143 348v303q0 178 89 275.5t272 97.5t271.5 -97t88.5 -276v-303q0 -179 -88.5 -276t-271.5 -97t-272 97.5t-89 275.5zM232 1118v144l266 151l266 -151v-144l-266 133zM317 334q0 -103 49 -158t138 -55t137.5 55t48.5 158v334q0 103 -48.5 157t-137.5 54t-138 -55 t-49 -158v-332z" />
<glyph unicode="&#xf5;" horiz-adv-x="1007" d="M143 348v303q0 178 89 275.5t272 97.5t271.5 -97t88.5 -276v-303q0 -179 -88.5 -276t-271.5 -97t-272 97.5t-89 275.5zM231 1198v143q18 18 65.5 40t98.5 22q55 0 116.5 -25.5t92.5 -25.5q34 0 87.5 19t72.5 32v-143q-24 -21 -67 -41.5t-97 -20.5q-42 0 -107 25.5 t-102 25.5q-32 0 -83.5 -17.5t-76.5 -33.5zM317 334q0 -103 49 -158t138 -55t137.5 55t48.5 158v334q0 103 -48.5 157t-137.5 54t-138 -55t-49 -158v-332z" />
<glyph unicode="&#xf6;" horiz-adv-x="1007" d="M143 348v303q0 178 89 275.5t272 97.5t271.5 -97t88.5 -276v-303q0 -179 -88.5 -276t-271.5 -97t-272 97.5t-89 275.5zM222 1272v59q0 92 110 92q113 0 113 -92v-59q0 -43 -29 -66.5t-84 -23.5q-52 0 -81 23.5t-29 66.5zM317 334q0 -103 49 -158t138 -55t137.5 55 t48.5 158v334q0 103 -48.5 157t-137.5 54t-138 -55t-49 -158v-332zM574 1272v59q0 92 110 92q113 0 113 -92v-59q0 -43 -29.5 -66.5t-83.5 -23.5t-82 23.5t-28 66.5z" />
<glyph unicode="&#xf7;" d="M170 543v143h725v-143h-725zM434 315v35q0 42 25 66t73 24q50 0 75.5 -24t25.5 -66v-35q0 -41 -25.5 -64.5t-75.5 -23.5q-48 0 -73 23.5t-25 64.5zM434 877v34q0 42 25 66t73 24q50 0 75.5 -24t25.5 -66v-34q0 -41 -25.5 -65t-75.5 -24q-48 0 -73 24t-25 65z" />
<glyph unicode="&#xf8;" horiz-adv-x="1007" d="M12 -104l168 251q-37 81 -37 201v303q0 178 89 275.5t272 97.5q136 0 221 -57l90 135h180l-168 -254q37 -81 37 -197v-303q0 -179 -88.5 -276t-271.5 -97q-133 0 -221 56l-90 -135h-181zM317 324l328 495q-48 60 -141 60q-89 0 -138 -55t-49 -158v-332v-10zM362 178 q48 -57 142 -57q89 0 137.5 55t48.5 158v334z" />
<glyph unicode="&#xf9;" horiz-adv-x="1015" d="M154 317v682h174v-651q0 -211 133 -211q60 0 120.5 44t106.5 122v696h174v-999h-164v143q-114 -168 -272 -168q-128 0 -200 87t-72 255zM291 1403h174l156 -285h-135z" />
<glyph unicode="&#xfa;" horiz-adv-x="1015" d="M154 317v682h174v-651q0 -211 133 -211q60 0 120.5 44t106.5 122v696h174v-999h-164v143q-114 -168 -272 -168q-128 0 -200 87t-72 255zM414 1118l155 285h174l-194 -285h-135z" />
<glyph unicode="&#xfb;" horiz-adv-x="1015" d="M154 317v682h174v-651q0 -211 133 -211q60 0 120.5 44t106.5 122v696h174v-999h-164v143q-114 -168 -272 -168q-128 0 -200 87t-72 255zM242 1118v144l266 151l266 -151v-144l-266 133z" />
<glyph unicode="&#xfc;" horiz-adv-x="1015" d="M154 317v682h174v-651q0 -211 133 -211q60 0 120.5 44t106.5 122v696h174v-999h-164v143q-114 -168 -272 -168q-128 0 -200 87t-72 255zM217 1272v59q0 45 29 68.5t82 23.5q112 0 112 -92v-59q0 -43 -28.5 -66.5t-83.5 -23.5q-53 0 -82 23.5t-29 66.5zM569 1272v59 q0 92 111 92q113 0 113 -92v-59q0 -43 -29.5 -66.5t-83.5 -23.5t-82.5 23.5t-28.5 66.5z" />
<glyph unicode="&#xfd;" horiz-adv-x="921" d="M31 999h190l215 -874l266 874h181l-459 -1378h-174l131 379h-66zM362 1118l156 285h174l-194 -285h-136z" />
<glyph unicode="&#xfe;" horiz-adv-x="1003" d="M154 -379v1778h174v-531q109 156 260 156q129 0 200.5 -87.5t71.5 -254.5v-365q0 -160 -83 -251t-224 -91q-104 0 -225 72v-426h-174zM328 203q43 -35 94.5 -54.5t95.5 -19.5q168 0 168 213v315q0 211 -133 211q-60 0 -120.5 -43.5t-104.5 -119.5v-502z" />
<glyph unicode="&#xff;" horiz-adv-x="921" d="M31 999h190l215 -874l266 874h181l-459 -1378h-174l131 379h-66zM197 1272v59q0 92 110 92q113 0 113 -92v-59q0 -43 -29 -66.5t-84 -23.5q-52 0 -81 23.5t-29 66.5zM549 1272v59q0 92 110 92q113 0 113 -92v-59q0 -43 -29.5 -66.5t-83.5 -23.5t-82 23.5t-28 66.5z" />
<glyph unicode="&#x152;" horiz-adv-x="1579" d="M143 416v510q0 214 107.5 327t310.5 113q108 0 197 -25h688v-157h-533v-424h492v-156h-492v-446h533v-158h-688q-86 -25 -189 -25q-212 0 -319 113.5t-107 327.5zM317 397q0 -130 67.5 -199t195.5 -69q104 0 159 16v1041q-62 26 -159 26q-127 0 -195 -68t-68 -198v-549z " />
<glyph unicode="&#x153;" horiz-adv-x="1521" d="M143 348v303q0 178 87.5 275.5t269.5 97.5q179 0 274 -123q92 123 275 123q171 0 260.5 -96t89.5 -271v-211h-535v-120q0 -102 52 -149.5t161 -47.5q101 0 291 37l-8 -154q-208 -37 -283 -37q-206 0 -303 123q-92 -123 -270 -123q-184 0 -272.5 97.5t-88.5 275.5z M317 334q0 -103 49 -158t138 -55q86 0 134.5 52t51.5 151v12v334q0 102 -49 155.5t-137 53.5q-89 0 -138 -55t-49 -158v-332zM864 590h361v88q0 97 -48 149t-133 52t-132.5 -51t-47.5 -148v-90z" />
<glyph unicode="&#x2c6;" horiz-adv-x="942" d="M205 1118v144l266 151l266 -151v-144l-266 133z" />
<glyph unicode="&#x2dc;" horiz-adv-x="942" d="M205 1198v143q18 18 65.5 40t98.5 22q55 0 116.5 -25.5t92.5 -25.5q34 0 87 19t72 32v-143q-24 -21 -67 -41.5t-97 -20.5q-42 0 -106.5 25.5t-101.5 25.5q-32 0 -83.5 -17.5t-76.5 -33.5z" />
<glyph unicode="&#x2000;" horiz-adv-x="860" />
<glyph unicode="&#x2001;" horiz-adv-x="1720" />
<glyph unicode="&#x2002;" horiz-adv-x="860" />
<glyph unicode="&#x2003;" horiz-adv-x="1720" />
<glyph unicode="&#x2004;" horiz-adv-x="573" />
<glyph unicode="&#x2005;" horiz-adv-x="430" />
<glyph unicode="&#x2006;" horiz-adv-x="286" />
<glyph unicode="&#x2007;" horiz-adv-x="286" />
<glyph unicode="&#x2008;" horiz-adv-x="215" />
<glyph unicode="&#x2009;" horiz-adv-x="344" />
<glyph unicode="&#x200a;" horiz-adv-x="95" />
<glyph unicode="&#x2010;" horiz-adv-x="716" d="M133 539v133h451v-133h-451z" />
<glyph unicode="&#x2011;" horiz-adv-x="716" d="M133 539v133h451v-133h-451z" />
<glyph unicode="&#x2012;" horiz-adv-x="716" d="M133 539v133h451v-133h-451z" />
<glyph unicode="&#x2013;" horiz-adv-x="1249" d="M133 539v133h983v-133h-983z" />
<glyph unicode="&#x2014;" horiz-adv-x="1454" d="M133 539v133h1188v-133h-1188z" />
<glyph unicode="&#x2018;" horiz-adv-x="444" d="M121 1079v62q0 56 14 102l62 182h120l-47 -202q70 -16 70 -86v-58q0 -90 -109 -90q-110 0 -110 90z" />
<glyph unicode="&#x2019;" horiz-adv-x="444" d="M113 1276v57q0 90 108 90q111 0 111 -90v-61q0 -54 -15 -103l-61 -182h-121l47 203q-69 15 -69 86z" />
<glyph unicode="&#x201a;" horiz-adv-x="444" d="M113 68v57q0 90 108 90q111 0 111 -90v-62q0 -53 -15 -102l-61 -182h-121l47 203q-69 15 -69 86z" />
<glyph unicode="&#x201c;" horiz-adv-x="731" d="M121 1077v62q0 56 14 102l62 182h120l-47 -202q70 -16 70 -86v-58q0 -90 -109 -90q-110 0 -110 90zM408 1077v62q0 56 14 102l61 182h121l-47 -202q70 -16 70 -86v-58q0 -90 -109 -90q-110 0 -110 90z" />
<glyph unicode="&#x201d;" horiz-adv-x="731" d="M113 1276v57q0 90 108 90q111 0 111 -90v-61q0 -54 -15 -103l-61 -182h-121l47 203q-69 15 -69 86zM399 1276v57q0 90 109 90q110 0 110 -90v-61q0 -57 -14 -103l-61 -182h-121l47 203q-70 16 -70 86z" />
<glyph unicode="&#x201e;" horiz-adv-x="731" d="M113 68v57q0 90 108 90q111 0 111 -90v-62q0 -53 -15 -102l-61 -182h-121l47 203q-69 15 -69 86zM399 68v57q0 90 109 90q110 0 110 -90v-62q0 -56 -14 -102l-61 -182h-121l47 203q-70 16 -70 86z" />
<glyph unicode="&#x2022;" horiz-adv-x="481" d="M113 514v68q0 51 33 77.5t94 26.5q62 0 95.5 -26.5t33.5 -77.5v-68q0 -51 -33.5 -77.5t-95.5 -26.5q-61 0 -94 26.5t-33 77.5z" />
<glyph unicode="&#x202f;" horiz-adv-x="344" />
<glyph unicode="&#x2039;" horiz-adv-x="651" d="M133 651l205 348h180l-190 -348l190 -348h-180z" />
<glyph unicode="&#x203a;" horiz-adv-x="651" d="M133 303l191 348l-191 348h180l205 -348l-205 -348h-180z" />
<glyph unicode="&#x205f;" horiz-adv-x="430" />
<glyph unicode="&#x20ac;" d="M96 397l31 144h139v127h-157l30 143h127v31q0 211 95.5 312t310.5 101q102 0 282 -32l-4 -150q-170 33 -278 33q-122 0 -177 -58.5t-55 -189.5v-47h428l-30 -143h-398v-127h373l-31 -144h-342v-22q0 -130 55 -188t177 -58q108 0 278 33l4 -154q-186 -33 -282 -33 q-217 0 -311.5 101.5t-94.5 312.5v8h-170z" />
<glyph unicode="&#x25fc;" horiz-adv-x="1003" d="M0 0v1004h1004v-1004h-1004z" />
</font>
</defs>
</svg>
